<?xml version="1.0" encoding="UTF-8"?>
<svg id="Layer_2" data-name="Layer 2" xmlns="http://www.w3.org/2000/svg" viewBox="0 0 50.93 54.56">
  <defs>
    <style>
      .cls-1 {
        fill: #fcf3e9;
      }
    </style>
  </defs>
  <path class="cls-1" d="m12.44,15.17c-.11,7.66-.22,17.04-.34,22.67-.01.57.45,1.04,1.02,1.04,3.4,0,10.54,0,12.38,0h0c0,4.53-3.67,8.2-8.2,8.2H3.54c.16-13.1.32-27.34.49-40.44h0c4.69,0,8.48,3.84,8.41,8.53Z"/>
  <path class="cls-1" d="m6.33,6.2c.92.16,2.3.56,3.67,1.55,3.37,2.43,3.56,6.3,3.54,7.36h12.17c6.41.02,12.29,5.26,11.59,11.63-.74,6.79-5.55,10.15-10.76,12.05-.04.88,0,3.22-1.97,5.6-1.28,1.66-2.78,2.3-3.59,2.67,13.23.64,24.8-9.92,24.81-20.32,0-11.11-8.99-20.12-20.1-20.13l-19.36-.42Z"/>
</svg>