<?xml version="1.0" encoding="UTF-8"?>
<svg id="Layer_1" data-name="Layer 1" xmlns="http://www.w3.org/2000/svg" viewBox="0 0 390 109">
  <defs>
    <style>
      .cls-1 {
        fill: #271775;
        stroke-width: 0px;
      }
    </style>
  </defs>
  <g>
    <path class="cls-1" d="M61.22,27.57l.13.59c.66-1.34,1.43-2.39,2.3-3.15.87-.76,1.93-1.28,3.19-1.56,1.5-.34,2.98-.27,4.42.22,1.44.49,2.7,1.4,3.77,2.72,1.07,1.33,1.84,3.01,2.31,5.05.34,1.5.44,2.94.31,4.29-.14,1.36-.48,2.55-1.03,3.57-.55,1.02-1.27,1.88-2.18,2.57-.91.69-1.94,1.16-3.1,1.43-1.4.32-2.64.3-3.71-.04-1.08-.35-2.17-.96-3.28-1.86l1.67,7.35c.49,2.15-.05,3.4-1.62,3.76-.92.21-1.59.07-2.02-.42-.42-.49-.76-1.26-1-2.33l-4.79-21.11c-.21-.93-.17-1.67.13-2.23s.81-.91,1.51-1.07c.69-.16,1.31-.05,1.85.32.54.37.91,1,1.12,1.89ZM72.42,32.5c-.29-1.29-.74-2.35-1.35-3.19-.6-.84-1.31-1.42-2.12-1.76-.81-.34-1.64-.41-2.49-.22-1.35.31-2.37,1.1-3.05,2.37-.68,1.27-.79,2.94-.32,5.01.44,1.95,1.25,3.36,2.41,4.23,1.17.87,2.43,1.16,3.79.85.81-.18,1.51-.59,2.1-1.22.58-.63.98-1.46,1.18-2.5.2-1.04.15-2.23-.15-3.56Z"/>
    <path class="cls-1" d="M87.05,33.68l.34,4.18c.08,1.01-.1,1.79-.53,2.34-.44.55-1.02.85-1.75.91-.72.06-1.33-.15-1.84-.63-.51-.47-.8-1.21-.88-2.21l-1.13-13.92c-.18-2.25.54-3.44,2.16-3.57.83-.07,1.45.15,1.86.64.41.5.67,1.25.79,2.28.52-1.07,1.07-1.9,1.65-2.47.59-.58,1.4-.91,2.46-.99,1.05-.09,2.09.09,3.12.54,1.03.45,1.58,1.1,1.65,1.97.05.61-.12,1.13-.51,1.56-.39.43-.83.67-1.32.71-.18.01-.64-.06-1.36-.23-.72-.17-1.35-.23-1.89-.19-.73.06-1.32.3-1.75.72-.43.42-.75,1.02-.94,1.8-.2.78-.3,1.69-.31,2.74-.01,1.05.04,2.33.16,3.83Z"/>
    <path class="cls-1" d="M116.02,30.78c-.07,1.49-.36,2.86-.88,4.1-.52,1.24-1.24,2.29-2.16,3.16-.92.87-2,1.52-3.25,1.95-1.25.43-2.63.61-4.16.54-1.52-.07-2.87-.37-4.06-.91-1.19-.54-2.21-1.29-3.06-2.24-.85-.95-1.47-2.06-1.88-3.32-.4-1.26-.57-2.65-.51-4.15.07-1.52.36-2.9.88-4.14.52-1.24,1.23-2.29,2.14-3.14s1.99-1.5,3.25-1.93c1.26-.43,2.63-.61,4.12-.55,1.52.07,2.88.37,4.1.91,1.21.54,2.24,1.29,3.08,2.23.84.94,1.46,2.05,1.87,3.32.41,1.27.57,2.65.51,4.16ZM110.99,30.56c.09-2.04-.29-3.65-1.14-4.83-.85-1.18-2.03-1.8-3.55-1.86-.98-.04-1.85.17-2.62.65-.77.48-1.38,1.2-1.82,2.17-.45.97-.7,2.12-.76,3.44-.06,1.31.09,2.46.45,3.46.35,1,.89,1.77,1.61,2.32.72.55,1.58.85,2.58.89,1.52.07,2.75-.45,3.7-1.56.95-1.11,1.47-2.67,1.56-4.69Z"/>
    <path class="cls-1" d="M126.33,25.23l-2.53,16.83c-.18,1.2-.37,2.17-.56,2.92-.19.75-.39,1.28-.58,1.59-1.14,1.98-3.05,2.77-5.73,2.37-1.5-.23-2.61-.6-3.32-1.13-.71-.53-1.01-1.19-.89-1.97.09-.58.33-1.03.74-1.35.41-.32.9-.43,1.46-.35.07.01.19.04.35.08.16.04.4.1.72.17.32.07.54.12.66.14.67.1,1.15-.09,1.45-.58s.55-1.4.76-2.75l2.51-16.72c.15-.98.49-1.69,1.02-2.11.53-.43,1.18-.58,1.93-.47.73.11,1.28.44,1.66,1,.38.56.5,1.33.35,2.33ZM124.67,19.59c-.69-.1-1.25-.4-1.68-.9-.43-.5-.58-1.13-.46-1.91.11-.7.44-1.24,1.01-1.62.57-.38,1.19-.52,1.86-.42.64.1,1.18.39,1.62.88s.59,1.12.47,1.91c-.12.76-.45,1.32-1,1.68s-1.16.49-1.82.39Z"/>
    <path class="cls-1" d="M143.93,37.74l-9.52-2.39c-.27,1.11-.29,2.14-.06,3.09.22.95.64,1.73,1.25,2.34.61.61,1.35,1.02,2.22,1.24.58.15,1.13.21,1.65.2.52-.02,1.04-.11,1.56-.29.52-.18,1.02-.38,1.48-.62.46-.24,1.07-.56,1.82-.98.3-.15.69-.17,1.15-.05.5.13.87.36,1.11.71.24.35.3.78.17,1.28-.11.44-.41.91-.9,1.41-.49.5-1.15.94-1.98,1.3-.83.37-1.82.6-2.96.69-1.14.09-2.39-.03-3.76-.37-3.12-.78-5.33-2.28-6.62-4.5-1.29-2.22-1.55-4.85-.78-7.91.36-1.44.91-2.72,1.64-3.84.74-1.12,1.62-2.02,2.67-2.69,1.04-.67,2.22-1.1,3.54-1.26,1.32-.17,2.71-.07,4.17.3,1.9.48,3.43,1.29,4.59,2.43,1.16,1.14,1.92,2.44,2.28,3.88.36,1.44.37,2.82.04,4.14-.31,1.22-.86,1.93-1.65,2.12-.79.19-1.82.12-3.09-.2ZM135.11,32.59l8.82,2.21c.3-1.69.16-3.05-.41-4.07-.57-1.02-1.49-1.69-2.76-2.01-1.21-.3-2.31-.13-3.3.51-.99.64-1.77,1.76-2.35,3.36Z"/>
    <path class="cls-1" d="M168,49.14c-.22.58-.63,1.14-1.24,1.67-.6.53-1.38.96-2.32,1.29-.94.33-2.03.47-3.26.42-1.23-.05-2.52-.33-3.88-.85-2.9-1.1-4.84-2.81-5.82-5.11s-.93-4.88.15-7.72c.73-1.92,1.75-3.48,3.06-4.67,1.31-1.19,2.82-1.93,4.53-2.2,1.71-.27,3.55-.03,5.51.71,1.21.46,2.26,1.06,3.14,1.8.88.74,1.56,1.52,2.05,2.35.49.83.8,1.63.93,2.41.13.78.09,1.44-.12,1.99-.21.56-.6.96-1.17,1.19-.57.23-1.15.23-1.74,0-.39-.15-.67-.37-.86-.67-.18-.3-.35-.73-.5-1.3-.24-1.09-.59-1.97-1.05-2.64-.46-.67-1.17-1.19-2.13-1.56-1.38-.53-2.71-.41-3.97.35-1.26.76-2.25,2.08-2.96,3.96-.34.88-.54,1.73-.6,2.55-.06.82.01,1.57.23,2.25s.56,1.26,1.04,1.75c.48.49,1.07.87,1.77,1.13.94.36,1.83.45,2.66.27.83-.18,1.68-.62,2.54-1.32.49-.42.95-.71,1.4-.88.45-.17.91-.17,1.39.02.57.22.97.62,1.18,1.2.21.58.22,1.11.04,1.61Z"/>
    <path class="cls-1" d="M178.06,38.79l.5.24,1.3-2.72c.35-.73.64-1.29.88-1.69.24-.4.51-.7.83-.91.32-.23.7-.35,1.12-.39.42-.03.84.05,1.25.24.57.27.99.74,1.25,1.39.17.44.2.88.08,1.33-.12.45-.36,1.06-.72,1.83l-1.47,3.08,1.66.79c.64.31,1.06.69,1.25,1.16.19.46.17.94-.05,1.41-.29.61-.73.92-1.33.93-.6.01-1.34-.19-2.24-.62l-.85-.4-3.98,8.32c-.34.71-.57,1.26-.71,1.67-.13.4-.15.78-.05,1.12.1.34.4.63.88.86.27.13.65.25,1.14.38.5.12.87.24,1.13.37.37.17.62.48.78.91.15.43.13.86-.08,1.3-.35.73-1.01,1.1-1.99,1.1-.98,0-2.22-.35-3.71-1.06-1.42-.68-2.37-1.43-2.87-2.25-.5-.82-.67-1.71-.49-2.66.17-.95.6-2.12,1.27-3.53l4.15-8.68-.6-.29c-.65-.31-1.08-.7-1.27-1.18-.19-.47-.18-.95.05-1.42s.59-.78,1.1-.91c.5-.13,1.1-.03,1.79.29Z"/>
    <path class="cls-1" d="M205.48,66.2l-8.5-4.9c-.56.99-.86,1.98-.91,2.96-.05.98.14,1.84.56,2.59.42.75,1.02,1.35,1.79,1.8.52.3,1.03.51,1.53.64.5.13,1.03.17,1.58.15.55-.03,1.08-.09,1.6-.19.51-.1,1.18-.25,2.02-.45.33-.06.71.02,1.12.26.45.26.74.59.87.99.14.4.08.83-.18,1.27-.23.39-.64.76-1.25,1.11-.61.35-1.37.59-2.26.71-.9.13-1.91.08-3.03-.15-1.12-.22-2.29-.69-3.51-1.39-2.79-1.61-4.5-3.65-5.14-6.14-.63-2.48-.16-5.09,1.41-7.82.74-1.29,1.62-2.37,2.63-3.25,1.01-.88,2.11-1.5,3.3-1.86,1.18-.36,2.43-.45,3.75-.25,1.31.2,2.62.67,3.93,1.42,1.7.98,2.95,2.18,3.75,3.59.8,1.42,1.18,2.87,1.13,4.35-.05,1.48-.41,2.82-1.09,3.99-.63,1.09-1.35,1.62-2.16,1.58-.81-.04-1.79-.38-2.92-1.04ZM198.4,58.83l7.88,4.54c.75-1.55.99-2.89.72-4.03-.27-1.14-.97-2.03-2.11-2.69-1.08-.62-2.19-.76-3.31-.41-1.13.35-2.19,1.21-3.18,2.59Z"/>
    <path class="cls-1" d="M219.78,73.82l-5.37-2.2c-.82-.33-1.36-.78-1.63-1.33-.27-.55-.28-1.13-.03-1.73.25-.61.66-1.02,1.23-1.23.57-.21,1.27-.14,2.11.2l5.37,2.2c.84.34,1.39.79,1.65,1.34.26.55.26,1.13.01,1.74-.25.6-.65,1.01-1.21,1.22-.56.21-1.27.14-2.12-.2Z"/>
    <path class="cls-1" d="M244.27,77.9l-.87,6.61c-.14,1.04-.48,1.8-1.02,2.26-.54.46-1.2.64-1.98.54-.75-.1-1.33-.44-1.73-1.02-.4-.58-.53-1.4-.39-2.44l1.05-7.92c.17-1.25.25-2.23.26-2.93,0-.7-.15-1.3-.47-1.79-.32-.49-.88-.79-1.7-.9-1.63-.21-2.77.2-3.44,1.25-.66,1.05-1.13,2.62-1.41,4.71l-.89,6.72c-.14,1.03-.47,1.78-1.01,2.25-.54.47-1.19.65-1.95.55-.75-.1-1.33-.45-1.74-1.04-.41-.59-.55-1.4-.41-2.44l1.88-14.23c.12-.94.43-1.62.93-2.05.5-.43,1.1-.6,1.8-.5.68.09,1.22.39,1.61.91.4.52.54,1.17.43,1.98l-.06.47c1-.92,2.02-1.56,3.07-1.91,1.05-.35,2.17-.45,3.38-.29,1.25.17,2.29.56,3.12,1.17.83.62,1.47,1.47,1.92,2.55.97-.91,1.97-1.55,3-1.91,1.02-.37,2.12-.47,3.28-.32,1.36.18,2.5.6,3.41,1.27.91.67,1.55,1.53,1.9,2.59.31.96.33,2.4.08,4.33l-1.28,9.71c-.14,1.04-.48,1.8-1.02,2.26-.54.46-1.2.64-1.98.54-.75-.1-1.33-.45-1.74-1.04-.41-.59-.55-1.4-.41-2.44l1.11-8.36c.14-1.07.21-1.93.2-2.59,0-.66-.18-1.23-.52-1.72-.34-.49-.92-.79-1.73-.9-.66-.09-1.3.03-1.94.34-.64.31-1.17.77-1.58,1.39-.48.79-.85,2.25-1.13,4.37Z"/>
    <path class="cls-1" d="M281.93,73.11c.36,1.45.46,2.84.31,4.18-.15,1.34-.54,2.55-1.18,3.64-.64,1.09-1.5,2.02-2.57,2.78-1.07.76-2.35,1.33-3.84,1.7-1.47.36-2.86.45-4.15.27-1.29-.18-2.48-.61-3.56-1.29s-1.99-1.56-2.74-2.65-1.3-2.38-1.66-3.84c-.36-1.47-.47-2.88-.32-4.22.15-1.34.54-2.54,1.17-3.62.63-1.08,1.49-2,2.57-2.76,1.08-.77,2.35-1.33,3.8-1.69,1.47-.36,2.87-.46,4.19-.28,1.32.18,2.51.6,3.59,1.27,1.07.67,1.98,1.55,2.73,2.66.75,1.1,1.3,2.39,1.66,3.85ZM277.04,74.32c-.49-1.99-1.31-3.42-2.46-4.31-1.15-.89-2.46-1.15-3.93-.79-.95.23-1.73.69-2.33,1.36-.6.67-.98,1.54-1.14,2.6-.16,1.06-.07,2.23.24,3.52.31,1.27.78,2.34,1.4,3.19.62.85,1.35,1.45,2.2,1.78.84.33,1.75.37,2.73.13,1.47-.36,2.51-1.21,3.11-2.54.6-1.33.66-2.97.17-4.94Z"/>
    <path class="cls-1" d="M282.84,61.69l.49-.24-1.32-2.71c-.35-.73-.61-1.31-.78-1.74-.16-.43-.23-.84-.2-1.22.03-.39.16-.77.39-1.12.24-.35.56-.63.96-.83.57-.28,1.19-.32,1.87-.11.45.14.81.39,1.1.76.28.37.61.94.98,1.7l1.5,3.07,1.65-.81c.64-.31,1.2-.4,1.68-.26.48.14.84.45,1.07.92.29.61.26,1.15-.1,1.62-.36.48-.99.93-1.88,1.37l-.84.41,4.05,8.29c.34.71.63,1.24.87,1.59.23.36.52.6.85.73.33.13.74.08,1.22-.16.26-.13.6-.35,1-.66.41-.31.73-.53.99-.66.36-.18.76-.19,1.2-.04s.76.44.97.87c.36.73.23,1.48-.37,2.25-.6.77-1.65,1.52-3.14,2.25-1.41.69-2.59.97-3.55.85-.96-.12-1.75-.54-2.39-1.27-.63-.73-1.29-1.79-1.97-3.19l-4.22-8.65-.59.29c-.65.32-1.22.4-1.71.26-.49-.14-.85-.45-1.08-.92-.23-.47-.24-.95-.03-1.43.21-.48.66-.88,1.34-1.22Z"/>
    <path class="cls-1" d="M294.76,52.05c-.59.38-1.21.52-1.86.42-.65-.09-1.18-.47-1.61-1.13-.38-.6-.48-1.23-.3-1.89.18-.66.55-1.17,1.12-1.54.55-.35,1.14-.48,1.79-.4.65.08,1.19.46,1.61,1.13.42.65.53,1.29.36,1.92-.18.63-.55,1.13-1.12,1.49ZM299.64,55.08l7.81,12.21c.54.85.75,1.62.62,2.31s-.5,1.23-1.12,1.63c-.62.4-1.26.5-1.94.3-.67-.2-1.27-.71-1.8-1.53l-7.73-12.09c-.53-.84-.74-1.59-.63-2.26.12-.67.48-1.2,1.1-1.6.62-.4,1.27-.51,1.94-.34.67.17,1.25.62,1.73,1.38Z"/>
    <path class="cls-1" d="M323.12,45.82c.96,1.14,1.67,2.35,2.13,3.61.46,1.26.64,2.53.55,3.79-.09,1.26-.45,2.47-1.07,3.63-.62,1.16-1.52,2.23-2.69,3.22-1.16.98-2.36,1.67-3.61,2.08-1.24.41-2.5.55-3.77.43-1.27-.12-2.48-.52-3.63-1.17-1.15-.65-2.22-1.56-3.19-2.71-.98-1.16-1.7-2.37-2.16-3.64-.46-1.26-.64-2.52-.55-3.76.09-1.24.45-2.45,1.08-3.62.63-1.17,1.52-2.23,2.66-3.2,1.16-.98,2.37-1.68,3.63-2.1,1.26-.42,2.52-.57,3.78-.45,1.26.12,2.47.52,3.62,1.17,1.16.66,2.22,1.56,3.19,2.72ZM319.27,49.07c-1.32-1.56-2.69-2.49-4.11-2.78-1.42-.29-2.71.05-3.88,1.03-.75.63-1.25,1.38-1.49,2.25-.24.87-.2,1.81.13,2.83.33,1.02.92,2.04,1.78,3.04.84,1,1.74,1.75,2.67,2.24.94.49,1.86.7,2.76.62.9-.08,1.74-.44,2.5-1.09,1.16-.98,1.72-2.2,1.67-3.65-.05-1.45-.73-2.96-2.03-4.5Z"/>
    <path class="cls-1" d="M324.06,33.9l.45.4c-.28-1.43-.28-2.72.01-3.87.29-1.14.89-2.22,1.79-3.24.88-.99,1.88-1.68,3.01-2.07,1.12-.39,2.25-.43,3.38-.11.68.16,1.31.44,1.91.84s1.3.97,2.13,1.7l6.97,6.21c.75.67,1.16,1.35,1.24,2.03.08.69-.13,1.3-.62,1.85-.5.56-1.1.83-1.8.83-.7,0-1.42-.33-2.15-.98l-6.24-5.56c-1.23-1.1-2.33-1.77-3.29-2.01-.96-.24-1.9.15-2.81,1.18-.6.67-.94,1.45-1.03,2.36-.09.9.1,1.79.56,2.67.39.68,1.35,1.7,2.88,3.06l4.69,4.18c.76.68,1.17,1.36,1.24,2.05s-.15,1.31-.65,1.87c-.48.54-1.07.81-1.78.8-.7,0-1.42-.33-2.15-.98l-10.82-9.65c-.71-.63-1.11-1.27-1.18-1.89-.08-.62.13-1.21.61-1.75.29-.33.64-.56,1.03-.68.39-.13.81-.13,1.27-.01.45.12.9.38,1.35.78Z"/>
  </g>
  <path class="cls-1" d="M260.26,48.07c-16.76,3.29-33.95-3.53-42.89-17.09-1.82-2.77-5.24-5.4-1.19-9.03,3.58-3.21,5.84-1.3,8.86,1.35,20.11,17.62,32.68,17.62,52.84.07,2.52-2.19,4.22-4.38,7.7-1.82,4.16,3.07,2.05,5.9.15,9.04-5.27,8.7-14.92,15.41-25.47,17.48Z"/>
  <path class="cls-1" d="M99.45,58.6c16.97-2.01,33.58,6.09,41.47,20.3,1.61,2.9,4.82,5.78.5,9.1-3.81,2.93-5.92.85-8.73-2.02-18.72-19.09-31.25-20.04-52.68-4.08-2.68,1.99-4.54,4.05-7.82,1.23-3.92-3.38-1.6-6.03.54-9.02,5.91-8.27,16.05-14.24,26.72-15.5Z"/>
</svg>